<?xml version="1.0" encoding="UTF-8" standalone="no"?>
<svg width="136px" height="49px" viewBox="0 0 136 49" version="1.1" xmlns="http://www.w3.org/2000/svg" xmlns:xlink="http://www.w3.org/1999/xlink" xmlns:sketch="http://www.bohemiancoding.com/sketch/ns">
    <!-- Generator: Sketch 3.3.2 (12043) - http://www.bohemiancoding.com/sketch -->
    <title>logo_black_138x51</title>
    <desc>Created with Sketch.</desc>
    <defs>
        <linearGradient x1="50%" y1="0%" x2="50%" y2="100%" id="linearGradient-1">
            <stop stop-color="#00A8E7" offset="0%"></stop>
            <stop stop-color="#26328B" offset="100%"></stop>
        </linearGradient>
        <filter x="-50%" y="-50%" width="200%" height="200%" filterUnits="objectBoundingBox" id="filter-2">
            <feOffset dx="0" dy="1" in="SourceAlpha" result="shadowOffsetOuter1"></feOffset>
            <feGaussianBlur stdDeviation="1" in="shadowOffsetOuter1" result="shadowBlurOuter1"></feGaussianBlur>
            <feColorMatrix values="0 0 0 0 0   0 0 0 0 0   0 0 0 0 0  0 0 0 0.35 0" in="shadowBlurOuter1" type="matrix" result="shadowMatrixOuter1"></feColorMatrix>
            <feMerge>
                <feMergeNode in="shadowMatrixOuter1"></feMergeNode>
                <feMergeNode in="SourceGraphic"></feMergeNode>
            </feMerge>
        </filter>
    </defs>
    <g id="Page-1" stroke="none" stroke-width="1" fill="none" fill-rule="evenodd" sketch:type="MSPage">
        <g id="logo_black_138x51" sketch:type="MSArtboardGroup" transform="translate(-1.000000, -2.000000)">
            <g sketch:type="MSLayerGroup" transform="translate(1.000000, -1.000000)">
                <g id="Rectangle-1-+-Triangle-2" transform="translate(90.091987, 0.235849)">
                    <path d="M0,11.6850681 C0,7.27138962 3.57631723,3.69339623 8.00628445,3.69339623 L35.9233112,3.69339623 C40.34506,3.69339623 43.9295956,7.27070736 43.9295956,11.6850681 L43.9295956,34.8432337 C43.9295956,39.2569123 40.3562928,42.8349057 36.6114857,42.8349057 L43.9295956,42.8349057 C39.8879151,42.8349057 34.3561194,42.8349057 34.3561194,42.8349057 L36.6114857,42.8349057 C35.3658813,42.8349057 31.4484761,42.8349057 31.4484761,42.8349057 L34.3561194,42.8349057 C32.7502724,42.8349057 27.8654605,42.8349057 23.4411023,42.8349057 L18.7479767,42.8349057 C14.3295301,42.8349057 7.16294069,42.8349057 5.4094005,42.8349057 L10.7476715,42.8349057 C7.79942582,42.8349057 1.83137624,42.8349057 0,42.8349057 L5.4094005,42.8349057 C2.4218711,42.8349057 0,39.2575945 0,34.8432337 L0,11.6850681 Z M12.777425,42.8349057 L7.42312081,42.8349057 L10.1002729,49.3066038 L12.777425,42.8349057 Z" id="Rectangle-1" fill="url(#linearGradient-1)" filter="url(#filter-2)" sketch:type="MSShapeGroup"></path>
                    <text id="IT" sketch:type="MSTextLayer" font-family="Eurostar" font-size="34" font-weight="686" letter-spacing="2.1025641" fill="#FFFFFF">
                        <tspan x="7.80801443" y="33.9641509">I</tspan>
                        <tspan x="19.6722973" y="33.9641509" letter-spacing="2.23397446">T</tspan>
                    </text>
                </g>
                <path d="M12.5693359,16.7876069 L12.5693359,34.2358491 L6.4765625,34.2358491 L6.4765625,16.7876069 L0.749023438,16.7876069 L0.749023438,11.5747162 L18.6953125,11.5747162 L18.6953125,16.7876069 L12.5693359,16.7876069 Z M32.6904297,30.3344819 L24.5390625,30.3344819 L23.4433594,34.2358491 L17.1347656,34.2358491 L23.9414062,11.5747162 L33.1386719,11.5747162 L40.0283203,34.2358491 L33.8525391,34.2358491 L32.6904297,30.3344819 Z M31.4785156,25.9350678 L28.6230469,16.0903412 L25.8505859,25.9350678 L31.4785156,25.9350678 Z M59.6845703,18.6469819 L53.9072266,18.6469819 C53.9072266,17.9165095 53.8518886,17.4074 53.7412109,17.1196381 C53.5751945,16.6437243 53.2154976,16.3338315 52.6621094,16.1899506 C52.2304666,16.0903407 51.5830121,16.0405366 50.7197266,16.0405366 C49.4247982,16.0405366 48.5725932,16.1180097 48.1630859,16.2729584 C47.3994102,16.5607203 47.0175781,17.2247761 47.0175781,18.2651459 C47.0175781,19.1173637 47.2333963,19.6707436 47.6650391,19.9253022 C47.9860042,20.1134542 48.7828712,20.2517991 50.0556641,20.3403412 C51.2399148,20.4067478 52.4186139,20.4786872 53.5917969,20.5561616 C54.9752673,20.6668392 56.1373651,20.8715897 57.078125,21.1704194 C58.4173244,21.5909944 59.3304012,22.343591 59.8173828,23.4282319 C60.182619,24.2251109 60.3652344,25.4370128 60.3652344,27.0639741 C60.3652344,28.9012228 60.1881528,30.2570035 59.8339844,31.1313569 C59.1920541,32.7140471 57.7477326,33.7156647 55.5009766,34.1362397 C54.5602167,34.3133239 53.0716248,34.4018647 51.0351562,34.4018647 C47.9140469,34.4018647 45.711595,34.2081817 44.4277344,33.82081 C42.3912659,33.2010152 41.2513033,31.6626192 41.0078125,29.2055756 C40.9524737,28.6411197 40.9248047,27.8719216 40.9248047,26.8979584 L46.7021484,26.8979584 L46.7021484,27.3462006 C46.7021484,28.3755026 46.989906,29.0340247 47.5654297,29.3217866 C47.9860047,29.5320741 49.1148997,29.6372162 50.9521484,29.6372162 C51.8929083,29.6372162 52.4296868,29.6316824 52.5625,29.6206147 C53.1601592,29.5431403 53.6249983,29.3217884 53.9570312,28.9565522 C54.2447931,28.635587 54.3886719,28.0988085 54.3886719,27.3462006 C54.3886719,26.4718473 54.1175157,25.8907984 53.5751953,25.6030366 C53.2542302,25.4370201 52.5680391,25.3208103 51.5166016,25.2544037 C48.0413238,25.0441162 45.7946014,24.8172305 44.7763672,24.5737397 C43.237948,24.1974357 42.1809925,23.4171701 41.6054688,22.2329194 C41.1627582,21.3253627 40.9414062,19.969582 40.9414062,18.1655366 C40.9414062,15.4871377 41.5722593,13.6997207 42.8339844,12.8032319 C43.7304732,12.1723693 44.9866456,11.7573344 46.6025391,11.5581147 C47.4436891,11.4585048 48.7828684,11.4087006 50.6201172,11.4087006 C54.283547,11.4087006 56.6741481,11.8292693 57.7919922,12.6704194 C59.0758528,13.6333148 59.7177734,15.2768531 59.7177734,17.6010834 C59.7177734,17.8003032 59.7067058,18.1489325 59.6845703,18.6469819 L59.6845703,18.6469819 Z M69.3964844,11.5747162 L69.3964844,20.1577241 L71.2226562,20.1577241 L77.0664062,11.5747162 L84.3710938,11.5747162 L76.3857422,22.6977631 L85.0351562,34.2358491 L77.5810547,34.2358491 L71.2724609,25.3042084 L69.3964844,25.3042084 L69.3964844,34.2358491 L63.3037109,34.2358491 L63.3037109,11.5747162 L69.3964844,11.5747162 Z" id="TASK" fill="#000D2E" sketch:type="MSShapeGroup"></path>
            </g>
        </g>
    </g>
</svg>