<?xml version="1.0" encoding="UTF-8" standalone="no"?>
<svg width="136px" height="49px" viewBox="0 0 136 49" version="1.1" xmlns="http://www.w3.org/2000/svg" xmlns:xlink="http://www.w3.org/1999/xlink" xmlns:sketch="http://www.bohemiancoding.com/sketch/ns">
    <!-- Generator: Sketch 3.3.2 (12043) - http://www.bohemiancoding.com/sketch -->
    <title>logo_black_138x51</title>
    <desc>Created with Sketch.</desc>
    <defs>
        <linearGradient x1="50%" y1="0%" x2="50%" y2="100%" id="linearGradient-1">
            <stop stop-color="#00A8E7" offset="0%"></stop>
            <stop stop-color="#26328B" offset="100%"></stop>
        </linearGradient>
        <filter x="-50%" y="-50%" width="200%" height="200%" filterUnits="objectBoundingBox" id="filter-2">
            <feOffset dx="0" dy="1" in="SourceAlpha" result="shadowOffsetOuter1"></feOffset>
            <feGaussianBlur stdDeviation="1" in="shadowOffsetOuter1" result="shadowBlurOuter1"></feGaussianBlur>
            <feColorMatrix values="0 0 0 0 0   0 0 0 0 0   0 0 0 0 0  0 0 0 0.35 0" in="shadowBlurOuter1" type="matrix" result="shadowMatrixOuter1"></feColorMatrix>
            <feMerge>
                <feMergeNode in="shadowMatrixOuter1"></feMergeNode>
                <feMergeNode in="SourceGraphic"></feMergeNode>
            </feMerge>
        </filter>
    </defs>
    <g id="Page-1" stroke="none" stroke-width="1" fill="none" fill-rule="evenodd" sketch:type="MSPage">
        <g id="logo_black_138x51" sketch:type="MSArtboardGroup" transform="translate(-1.000000, -2.000000)">
            <g sketch:type="MSLayerGroup" transform="translate(1.000000, 2.000000)">
                <g id="Rectangle-1-+-Triangle-2" transform="translate(90.091987, 0.235849)" sketch:type="MSShapeGroup">
                    <path d="M0,8.68506814 C0,4.27138962 3.57631723,0.693396226 8.00628445,0.693396226 L35.9233112,0.693396226 C40.34506,0.693396226 43.9295956,4.27070736 43.9295956,8.68506814 L43.9295956,31.8432337 C43.9295956,36.2569123 40.3562928,39.8349057 36.6114857,39.8349057 L43.9295956,39.8349057 C39.8879151,39.8349057 34.3561194,39.8349057 34.3561194,39.8349057 L36.6114857,39.8349057 C35.3658813,39.8349057 31.4484761,39.8349057 31.4484761,39.8349057 L34.3561194,39.8349057 C32.7502724,39.8349057 27.8654605,39.8349057 23.4411023,39.8349057 L18.7479767,39.8349057 C14.3295301,39.8349057 7.16294069,39.8349057 5.4094005,39.8349057 L10.7476715,39.8349057 C7.79942582,39.8349057 1.83137624,39.8349057 0,39.8349057 L5.4094005,39.8349057 C2.4218711,39.8349057 0,36.2575945 0,31.8432337 L0,8.68506814 Z M12.777425,39.8349057 L7.42312081,39.8349057 L10.1002729,46.3066038 L12.777425,39.8349057 Z" id="Rectangle-1" fill="url(#linearGradient-1)" filter="url(#filter-2)"></path>
                    <path d="M15.7435613,8.30301813 L15.7435613,30.9641509 L9.65078786,30.9641509 L9.65078786,8.30301813 L15.7435613,8.30301813 Z M31.7416332,13.5159088 L31.7416332,30.9641509 L25.6488598,30.9641509 L25.6488598,13.5159088 L19.9213207,13.5159088 L19.9213207,8.30301813 L37.8676098,8.30301813 L37.8676098,13.5159088 L31.7416332,13.5159088 Z" id="IT" fill="#FFFFFF"></path>
                </g>
                <path d="M12.5693359,13.7876069 L12.5693359,31.2358491 L6.4765625,31.2358491 L6.4765625,13.7876069 L0.749023438,13.7876069 L0.749023438,8.57471624 L18.6953125,8.57471624 L18.6953125,13.7876069 L12.5693359,13.7876069 Z M32.6904297,27.3344819 L24.5390625,27.3344819 L23.4433594,31.2358491 L17.1347656,31.2358491 L23.9414062,8.57471624 L33.1386719,8.57471624 L40.0283203,31.2358491 L33.8525391,31.2358491 L32.6904297,27.3344819 Z M31.4785156,22.9350678 L28.6230469,13.0903412 L25.8505859,22.9350678 L31.4785156,22.9350678 Z M59.6845703,15.6469819 L53.9072266,15.6469819 C53.9072266,14.9165095 53.8518886,14.4074 53.7412109,14.1196381 C53.5751945,13.6437243 53.2154976,13.3338315 52.6621094,13.1899506 C52.2304666,13.0903407 51.5830121,13.0405366 50.7197266,13.0405366 C49.4247982,13.0405366 48.5725932,13.1180097 48.1630859,13.2729584 C47.3994102,13.5607203 47.0175781,14.2247761 47.0175781,15.2651459 C47.0175781,16.1173637 47.2333963,16.6707436 47.6650391,16.9253022 C47.9860042,17.1134542 48.7828712,17.2517991 50.0556641,17.3403412 C51.2399148,17.4067478 52.4186139,17.4786872 53.5917969,17.5561616 C54.9752673,17.6668392 56.1373651,17.8715897 57.078125,18.1704194 C58.4173244,18.5909944 59.3304012,19.343591 59.8173828,20.4282319 C60.182619,21.2251109 60.3652344,22.4370128 60.3652344,24.0639741 C60.3652344,25.9012228 60.1881528,27.2570035 59.8339844,28.1313569 C59.1920541,29.7140471 57.7477326,30.7156647 55.5009766,31.1362397 C54.5602167,31.3133239 53.0716248,31.4018647 51.0351562,31.4018647 C47.9140469,31.4018647 45.711595,31.2081817 44.4277344,30.82081 C42.3912659,30.2010152 41.2513033,28.6626192 41.0078125,26.2055756 C40.9524737,25.6411197 40.9248047,24.8719216 40.9248047,23.8979584 L46.7021484,23.8979584 L46.7021484,24.3462006 C46.7021484,25.3755026 46.989906,26.0340247 47.5654297,26.3217866 C47.9860047,26.5320741 49.1148997,26.6372162 50.9521484,26.6372162 C51.8929083,26.6372162 52.4296868,26.6316824 52.5625,26.6206147 C53.1601592,26.5431403 53.6249983,26.3217884 53.9570312,25.9565522 C54.2447931,25.635587 54.3886719,25.0988085 54.3886719,24.3462006 C54.3886719,23.4718473 54.1175157,22.8907984 53.5751953,22.6030366 C53.2542302,22.4370201 52.5680391,22.3208103 51.5166016,22.2544037 C48.0413238,22.0441162 45.7946014,21.8172305 44.7763672,21.5737397 C43.237948,21.1974357 42.1809925,20.4171701 41.6054688,19.2329194 C41.1627582,18.3253627 40.9414062,16.969582 40.9414062,15.1655366 C40.9414062,12.4871377 41.5722593,10.6997207 42.8339844,9.80323187 C43.7304732,9.17236934 44.9866456,8.75733443 46.6025391,8.55811468 C47.4436891,8.45850481 48.7828684,8.40870062 50.6201172,8.40870062 C54.283547,8.40870062 56.6741481,8.82926933 57.7919922,9.67041937 C59.0758528,10.6333148 59.7177734,12.2768531 59.7177734,14.6010834 C59.7177734,14.8003032 59.7067058,15.1489325 59.6845703,15.6469819 L59.6845703,15.6469819 Z M69.3964844,8.57471624 L69.3964844,17.1577241 L71.2226562,17.1577241 L77.0664062,8.57471624 L84.3710938,8.57471624 L76.3857422,19.6977631 L85.0351562,31.2358491 L77.5810547,31.2358491 L71.2724609,22.3042084 L69.3964844,22.3042084 L69.3964844,31.2358491 L63.3037109,31.2358491 L63.3037109,8.57471624 L69.3964844,8.57471624 Z" id="TASK" fill="#000D2E" sketch:type="MSShapeGroup"></path>
            </g>
        </g>
    </g>
</svg>